# xmcd CD database file
#
# Track frame offsets:
#	150
#	11512
#	21634
#	30373
#	41930
#	54234
#	74259
#	83868
#	98912
#	115464
#	126024
#	138782
#
# Disc length: 2023 seconds
#
# Revision: 1
# Processed by: cddbd v1.4PL0 Copyright (c) Steve Scherf et al.
# Submitted via: CDex 1.51
#
DISCID=9d07e50c
DTITLE=Jag - Juke Joint Boogie
DYEAR=2003
DGENRE=Blues
TTITLE0=Juke Joint Boogie
TTITLE1=Lay Down Your Plow
TTITLE2=My Momma Told Me
TTITLE3=Walkin At Midnight
TTITLE4=I'm Troubled
TTITLE5=Boogie In E
TTITLE6=Tumbleweed
TTITLE7=House Rockin
TTITLE8=Boogie In A
TTITLE9=Rollin And Tumblin'
TTITLE10=Slow Blues
TTITLE11=Pearline
EXTD=YEAR: 2003
EXTT0=
EXTT1=
EXTT2=
EXTT3=
EXTT4=
EXTT5=
EXTT6=
EXTT7=
EXTT8=
EXTT9=
EXTT10=
EXTT11=
PLAYORDER=
